<svg width="48" height="48" viewBox="0 0 48 48" xmlns="http://www.w3.org/2000/svg">
  <defs>
    <linearGradient id="clefGradient" x1="0%" y1="0%" x2="100%" y2="100%">
      <stop offset="0%" style="stop-color:#2c2c2c;stop-opacity:1" />
      <stop offset="100%" style="stop-color:#1a1a1a;stop-opacity:1" />
    </linearGradient>
  </defs>
  
  <!-- Background circle -->
  <circle cx="24" cy="24" r="22" fill="white" stroke="#e5e7eb" stroke-width="1"/>
  
  <!-- Treble Clef with hand-drawn style -->
  <g fill="url(#clefGradient)" stroke="#1a1a1a" stroke-width="0.5">
    <!-- Main body of the clef -->
    <path d="M 16 8 Q 16 12, 18 16 Q 20 20, 24 22 Q 28 24, 30 28 Q 32 32, 32 36 Q 32 40, 30 42 Q 28 44, 24 44 Q 20 44, 18 42 Q 16 40, 16 36 Q 16 32, 18 28 Q 20 24, 24 22 Q 28 20, 30 16 Q 32 12, 32 8" 
          fill="none" stroke-width="1.5"/>
    
    <!-- Upper loop -->
    <path d="M 24 8 Q 26 6, 28 8 Q 26 10, 24 8" fill="none" stroke-width="1.5"/>
    
    <!-- Lower dot -->
    <circle cx="24" cy="38" r="2" fill="#1a1a1a"/>
    
    <!-- Dynamic flourishes -->
    <path d="M 12 12 Q 14 10, 16 12" fill="none" stroke-width="1" opacity="0.7"/>
    <path d="M 36 32 Q 38 30, 40 32" fill="none" stroke-width="1" opacity="0.7"/>
    <path d="M 14 18 Q 16 16, 18 18" fill="none" stroke-width="0.8" opacity="0.6"/>
    <path d="M 30 26 Q 32 24, 34 26" fill="none" stroke-width="0.8" opacity="0.6"/>
  </g>
</svg> 